# xmcd
#
# Track frame offsets:
#	150
#	28375
#	84640
#	118716
#	174100
#	215342
#	238325
#
# Disc length: 3364 seconds
#
# Revision: 1
# Processed by: cddbd v1.5.2PL0 Copyright (c) Steve Scherf et al.
# Submitted via: audiograbber 1.83.01
#
DISCID=5c0d2207
DTITLE=Grateful Dead - 80-05-11 Cumberland County Civic Centre, Portland ME
DYEAR=1900
DGENRE=
TTITLE0=Scarlet Begonias
TTITLE1=Fire On The Mountain
TTITLE2=Feel Like A Stranger
TTITLE3=Terrapin Station
TTITLE4=Playing In The Band
TTITLE5=Drums
TTITLE6=Space
EXTD=
EXTT0=
EXTT1=
EXTT2=
EXTT3=
EXTT4=
EXTT5=
EXTT6=
PLAYORDER=
